<svg width="91" height="38" viewBox="0 0 91 38" fill="none" xmlns="http://www.w3.org/2000/svg">
    <path d="M4.07422 23.6893V4.55961H15.1484C16.4267 4.54999 17.6949 4.78622 18.884 5.25543C19.9858 5.68744 20.9874 6.34063 21.827 7.1747C22.6626 8.01966 23.3183 9.02508 23.7547 10.1303C24.2312 11.3401 24.4682 12.6309 24.4526 13.9311C24.464 15.252 24.2273 16.5634 23.7547 17.797C23.3195 18.9443 22.6631 19.995 21.8228 20.8892C20.9895 21.7638 19.9886 22.4616 18.8798 22.941C17.7002 23.4473 16.4279 23.7022 15.1442 23.6893H4.07422ZM15.1484 20.349C15.9658 20.3572 16.776 20.1961 17.5281 19.876C18.2499 19.5716 18.9019 19.123 19.4441 18.5576C19.9863 17.9922 20.4073 17.3221 20.6813 16.5882C20.9815 15.7881 21.1298 14.939 21.1186 14.0845C21.1262 13.2369 20.9743 12.3954 20.6708 11.604C20.396 10.8768 19.9742 10.2142 19.4316 9.65751C18.889 9.10084 18.2374 8.6621 17.5176 8.36873C16.7634 8.05666 15.954 7.90008 15.1379 7.90836H7.38934V20.349H15.1484Z"
          fill="url(#paint0_linear_597_3793)"/>
    <path d="M32.3524 18.3771V15.1356H40.0316C41.206 15.1356 42.1225 14.8027 42.7812 14.1371C43.4399 13.4714 43.7685 12.5948 43.7671 11.5072C43.7671 10.4015 43.4385 9.52491 42.7812 8.87744C42.1239 8.22997 41.2074 7.90554 40.0316 7.90414H29.9054V23.6851H26.5903V4.55539H40.0316C41.0396 4.54032 42.0421 4.70621 42.9914 5.04519C43.8161 5.34198 44.5679 5.81142 45.1966 6.42211C45.8041 7.02773 46.2707 7.75984 46.563 8.56632C46.8903 9.47682 47.0505 10.4389 47.036 11.4063C47.0482 12.3695 46.888 13.327 46.563 14.2338C46.2689 15.0633 45.7965 15.8183 45.1791 16.4456C44.5616 17.0728 43.8142 17.5571 42.9893 17.8642C42.0436 18.2193 41.0395 18.3933 40.0295 18.3771H32.3524Z"
          fill="url(#paint1_linear_597_3793)"/>
    <path d="M58.4401 23.6894C57.1694 23.7017 55.9103 23.4468 54.7445 22.941C53.6262 22.4549 52.617 21.749 51.7767 20.8654C50.9364 19.9818 50.2821 18.9383 49.8528 17.797C49.3809 16.5633 49.1449 15.2519 49.157 13.9311C49.1416 12.6178 49.3792 11.3139 49.857 10.0905C50.2916 8.97914 50.9548 7.97148 51.8036 7.13272C52.647 6.31004 53.648 5.66648 54.7466 5.24077C55.9239 4.78419 57.1774 4.5559 58.4401 4.56808H63.0964C64.3969 4.55289 65.6884 4.7862 66.9014 5.25549C68.0119 5.68009 69.0204 6.33409 69.8612 7.17481C70.7019 8.01553 71.3559 9.02407 71.7805 10.1346C72.248 11.3465 72.4799 12.6365 72.4637 13.9353C72.4757 15.2562 72.2397 16.5675 71.7679 17.8012C71.3307 18.951 70.6689 20.0022 69.8213 20.8935C68.9799 21.7663 67.9739 22.4636 66.8614 22.9452C65.6736 23.4537 64.3926 23.7086 63.1006 23.6936L58.4401 23.6894ZM63.1006 20.349C63.931 20.3582 64.7544 20.1973 65.5202 19.8761C66.2425 19.5725 66.895 19.1242 67.4373 18.5587C67.9797 17.9932 68.4004 17.3226 68.6735 16.5883C68.9769 15.7887 69.1295 14.9398 69.1233 14.0846C69.1305 13.2372 68.9794 12.3959 68.6777 11.604C68.4038 10.8764 67.9822 10.2133 67.4395 9.6565C66.8969 9.09972 66.2448 8.66128 65.5244 8.3688C64.7566 8.05576 63.934 7.89924 63.1048 7.90842H58.4401C57.624 7.90014 56.8146 8.05673 56.0605 8.3688C55.3529 8.66145 54.7127 9.09568 54.179 9.64481C53.6426 10.2049 53.2225 10.8658 52.943 11.5893C52.6383 12.3855 52.4878 13.2322 52.4994 14.0846C52.4921 14.9383 52.6439 15.786 52.9472 16.5841C53.2238 17.3208 53.6439 17.9954 54.1832 18.5685C54.7156 19.126 55.3557 19.5694 56.0647 19.8719C56.8152 20.1929 57.6239 20.3553 58.4401 20.349H63.1006Z"
          fill="url(#paint2_linear_597_3793)"/>
    <path d="M78.4107 7.03385C78.4107 8.45702 77.5341 9.26635 76.3485 9.26635C75.556 9.26635 74.9442 8.89006 74.6899 8.27623V10.9796H74.1538V4.90646H74.6709V5.8188C74.8287 5.50809 75.0721 5.24899 75.3723 5.07206C75.6725 4.89514 76.017 4.80777 76.3653 4.82027C77.5824 4.82027 78.4107 5.60227 78.4107 7.03385ZM77.8263 7.03385C77.8452 5.93231 77.1851 5.3395 76.2539 5.3395C75.434 5.3395 74.6983 5.82931 74.6983 6.93925V7.03385C74.6983 8.1543 75.3289 8.75763 76.2539 8.75763C77.1788 8.75763 77.8179 8.13538 77.8284 7.03385H77.8263Z"
          fill="#1C3761"/>
    <path d="M83.3658 4.90631V9.18002H82.8256V8.33915C82.6551 8.63091 82.4087 8.87089 82.1125 9.03343C81.8162 9.19598 81.4814 9.27498 81.1438 9.26201C79.9119 9.26201 79.0815 8.46949 79.0815 7.04842C79.0815 5.62735 79.9582 4.81592 81.1627 4.81592C81.9552 4.81592 82.5943 5.19221 82.8445 5.83337V4.90631H83.3658ZM82.7919 7.05263C82.7919 5.91325 82.1423 5.33936 81.2384 5.33936C80.3345 5.33936 79.6849 5.95109 79.666 7.05263C79.647 8.15416 80.3155 8.74697 81.2384 8.74697C82.0477 8.74697 82.7919 8.25717 82.7919 7.14722V7.05263Z"
          fill="#1C3761"/>
    <path d="M88.3854 4.896L85.558 10.9797H84.9652L85.9259 8.95528L84.2441 4.90651H84.9042L86.2412 8.31412L87.7485 4.896H88.3854Z"
          fill="#1C3761"/>
    <defs>
        <linearGradient id="paint0_linear_597_3793" x1="3.02524" y1="13.6452" x2="97.627" y2="20.3826"
                        gradientUnits="userSpaceOnUse">
            <stop offset="0.01" stop-color="#EC6669"/>
            <stop offset="0.08" stop-color="#DC6370"/>
            <stop offset="0.21" stop-color="#B35A82"/>
            <stop offset="0.34" stop-color="#814F98"/>
            <stop offset="0.65" stop-color="#283374"/>
            <stop offset="0.75" stop-color="#376394"/>
            <stop offset="0.86" stop-color="#4795B6"/>
            <stop offset="0.95" stop-color="#51B4CB"/>
            <stop offset="0.99" stop-color="#55C0D3"/>
        </linearGradient>
        <linearGradient id="paint1_linear_597_3793" x1="3.14486" y1="11.9655" x2="97.7466" y2="18.7051"
                        gradientUnits="userSpaceOnUse">
            <stop offset="0.01" stop-color="#EC6669"/>
            <stop offset="0.08" stop-color="#DC6370"/>
            <stop offset="0.21" stop-color="#B35A82"/>
            <stop offset="0.34" stop-color="#814F98"/>
            <stop offset="0.65" stop-color="#283374"/>
            <stop offset="0.75" stop-color="#376394"/>
            <stop offset="0.86" stop-color="#4795B6"/>
            <stop offset="0.95" stop-color="#51B4CB"/>
            <stop offset="0.99" stop-color="#55C0D3"/>
        </linearGradient>
        <linearGradient id="paint2_linear_597_3793" x1="3.28345" y1="10.0316" x2="97.8831" y2="16.7691"
                        gradientUnits="userSpaceOnUse">
            <stop offset="0.01" stop-color="#EC6669"/>
            <stop offset="0.08" stop-color="#DC6370"/>
            <stop offset="0.21" stop-color="#B35A82"/>
            <stop offset="0.34" stop-color="#814F98"/>
            <stop offset="0.65" stop-color="#283374"/>
            <stop offset="0.75" stop-color="#376394"/>
            <stop offset="0.86" stop-color="#4795B6"/>
            <stop offset="0.95" stop-color="#51B4CB"/>
            <stop offset="0.99" stop-color="#55C0D3"/>
        </linearGradient>
    </defs>
</svg>
